<svg aria-hidden="true" style="position:absolute;width:0;height:0;overflow:hidden" xmlns="http://www.w3.org/2000/svg">
  <defs>
    <symbol id="icon-antenna" viewBox="0 0 32 32">
      <path fill="#2e2f42" style="fill:var(--color1, #2e2f42)" d="m30.773 22.098-8.443-8.505.937-4.615c.242.094.499.144.758.146h.006a2.159 2.159 0 1 0-2.008-1.435l-4.96.605L8.972.161a.534.534 0 0 0-.377-.16.532.532 0 0 0-.373.155L6.709 1.66a.534.534 0 0 0 0 .754l.814.826a14.943 14.943 0 0 0 2.519 17.663.513.513 0 0 0 .146.098c-.034.18-.051.364-.052.547v6.187h-6.4a2.67 2.67 0 0 0-2.667 2.667v1.067c0 .295.239.533.533.533h24.533a.533.533 0 0 0 .533-.533v-1.067a2.67 2.67 0 0 0-2.667-2.667h-6.4v-2.742a15.09 15.09 0 0 0 3.049.32 14.854 14.854 0 0 0 7.04-1.783l.818.823a.534.534 0 0 0 .377.16.532.532 0 0 0 .373-.155l1.513-1.504a.534.534 0 0 0 0-.754zM23.28 6.233a1.067 1.067 0 1 1 .753 1.822h-.003a1.067 1.067 0 0 1-.747-1.823h-.002zm-1.256 3.505-.598 2.946-1.175-1.182 1.774-1.763zm-.605-.902-1.92 1.909-1.485-1.493 3.405-.415zM24.004 28.8a1.6 1.6 0 0 1 1.6 1.6v.533H2.137V30.4a1.6 1.6 0 0 1 1.6-1.6h20.267zm-7.467-2.133v1.067h-5.333v-1.067h5.333zM11.204 25.6v-4.053c0-1.294 1.196-2.347 2.667-2.347s2.667 1.053 2.667 2.347V25.6h-5.333zm6.4-1.696v-2.357c0-1.882-1.675-3.413-3.733-3.413a3.8 3.8 0 0 0-3.281 1.786A13.87 13.87 0 0 1 8.311 4.033l18.602 18.708a13.818 13.818 0 0 1-9.309 1.163zm11.289-.684L7.836 2.039l.755-.752 7.935 7.98c.004 0 .006.007.01.01l13.115 13.191-.757.752z"/>
      <path fill="#4d5ae5" style="fill:var(--color2, #4d5ae5)" d="M13.876 20.267h-.005a1.6 1.6 0 1 0-.004 3.2h.005a1.6 1.6 0 1 0 .004-3.2zm.373 1.978a.534.534 0 0 1-.752-.756.534.534 0 0 1 .373-.155.534.534 0 0 1 .374.911h.005z"/>
    </symbol>
    <symbol id="icon-astronaut" viewBox="0 0 32 32">
      <path fill="#4d5ae5" style="fill:var(--color2, #4d5ae5)" d="M31.974 4.524a.534.534 0 0 0-.43-.363l-1.91-.278-.855-1.731c-.179-.365-.777-.365-.956 0l-.855 1.731-1.91.278a.535.535 0 0 0-.296.91l1.383 1.348-.326 1.903c-.034.2.048.402.212.522a.53.53 0 0 0 .562.04l1.709-.899 1.709.899a.536.536 0 0 0 .775-.563l-.326-1.903 1.383-1.348a.536.536 0 0 0 .135-.547zm-2.463 1.327a.534.534 0 0 0-.153.472l.191 1.114-1-.526a.533.533 0 0 0-.498 0l-1.001.526.191-1.114a.534.534 0 0 0-.153-.472l-.81-.789 1.119-.163a.532.532 0 0 0 .402-.292l.5-1.013.5 1.013a.535.535 0 0 0 .402.292l1.119.163-.809.789zM26.133 20.522h-1.067v1.067h1.067v-1.067zM26.133 22.656h-1.067v1.067h1.067v-1.067zM27.2 21.589h-1.067v1.067H27.2v-1.067zM25.067 21.589H24v1.067h1.067v-1.067zM22.4 26.389h-1.067v1.067H22.4v-1.067zM22.4 28.522h-1.067v1.067H22.4v-1.067zM23.467 27.456H22.4v1.067h1.067v-1.067zM21.333 27.456h-1.067v1.067h1.067v-1.067zM16 24.256h-1.067v1.067H16v-1.067zM16 26.389h-1.067v1.067H16v-1.067zM17.067 25.322H16v1.067h1.067v-1.067zM14.933 25.322h-1.067v1.067h1.067v-1.067zM5.867 6.122H4.8v1.067h1.067V6.122zM5.867 8.255H4.8v1.067h1.067V8.255z"/>
      <path fill="#4d5ae5" style="fill:var(--color2, #4d5ae5)" d="M6.933 7.189H5.866v1.067h1.067V7.189zM4.8 7.189H3.733v1.067H4.8V7.189z"/>
      <path fill="#2e2f42" style="fill:var(--color1, #2e2f42)" d="M24.715 14.159a1.775 1.775 0 0 0-1.188-.705 1.778 1.778 0 0 0-1.34.352l-1.252.96-1.898 1.417-1.358-.541c2.421-1.086 4.114-3.508 4.114-6.32 0-3.823-3.123-6.933-6.961-6.933s-6.961 3.11-6.961 6.933a6.86 6.86 0 0 0 1.12 3.758l-2.764-.024h-.005c-.009 0-.015.004-.023.005a.515.515 0 0 0-.155.031l-.038.013c-.006.003-.013.003-.019.006l-3.233 1.596-.001.001-1.893.911a.397.397 0 0 0-.063.035 1.779 1.779 0 0 0-.598 2.295c.22.429.595.745 1.056.889a1.776 1.776 0 0 0 1.378-.128l1.388-.738 2.264-1.169 1.357-.008L2.2 22.211l-.002.001-1.339 1.333c-.316.315-.49.732-.49 1.178s.174.863.49 1.179c.325.323.752.485 1.179.485s.854-.162 1.18-.485l1.314-1.309 1.741-1.3.901.897-1.762 1.754-.002.001-1.339 1.333c-.316.315-.49.732-.49 1.178s.174.863.49 1.179c.325.323.753.485 1.18.485s.855-.162 1.18-.485l3.482-3.467.001-.002 1.01-1-.004-.004c.006-.006.015-.009.022-.015l5.166-5.658 3.471.494a.52.52 0 0 0 .262-.033c.018-.006.033-.015.05-.023.019-.01.039-.015.058-.027l3.213-2.133c.012-.008.018-.021.029-.029.013-.01.029-.014.041-.026l1.271-1.191c.662-.62.753-1.635.212-2.362zM2.13 17.77a.714.714 0 0 1-.558.052.717.717 0 0 1-.213-1.26l1.314-.632.449 1.313-.992.527zm3.498-1.828-1.548.8-.439-1.283 2.027-1.001-.04 1.484zm15.099-6.62a5.79 5.79 0 0 1-.599 2.559l-4.181-1.899a1.863 1.863 0 0 0-.788-1.388l1.464-4.86c2.378.756 4.105 2.974 4.105 5.588zm-11.789 0c0-3.235 2.644-5.867 5.894-5.867.253 0 .5.021.745.052l-1.432 4.754c-.019-.001-.037-.006-.057-.006-1.033 0-1.873.837-1.873 1.867s.84 1.867 1.873 1.867c.694 0 1.294-.383 1.618-.945l3.862 1.755a5.894 5.894 0 0 1-4.737 2.39c-3.25 0-5.894-2.632-5.894-5.867zm5.956.8c0 .441-.362.8-.806.8s-.806-.359-.806-.8c0-.441.362-.8.806-.8s.806.359.806.8zM2.465 25.146a.608.608 0 0 1-.854.001.592.592 0 0 1 0-.844l.962-.958.851.848-.959.955zm3.214 3.734a.608.608 0 0 1-.855.001.592.592 0 0 1 0-.844l.963-.959.852.848-.96.955zm3.481-3.469-.002.001-1.765 1.76-.852-.848 1.763-1.755.002-.001c.04-.04.065-.088.09-.135.007-.014.02-.026.026-.04.017-.041.019-.085.026-.129.003-.025.014-.047.014-.073 0-.036-.013-.07-.02-.106-.006-.032-.006-.065-.019-.095a.55.55 0 0 0-.091-.138c-.01-.012-.014-.027-.025-.038h-.001l-.001-.002-1.607-1.6c-.017-.017-.039-.024-.058-.038a.507.507 0 0 0-.087-.058.515.515 0 0 0-.093-.033.507.507 0 0 0-.103-.02.5.5 0 0 0-.095.005.53.53 0 0 0-.104.02.477.477 0 0 0-.094.045c-.02.011-.042.015-.061.029L4.23 23.486l-.901-.897 2.399-2.386 4.361 4.289-.928.919zm6.819-7.017c-.015-.002-.03.004-.045.003a.556.556 0 0 0-.3.075.492.492 0 0 0-.083.061c-.013.011-.028.017-.04.029l-4.698 5.146-4.328-4.257 2.833-2.818a.534.534 0 0 0-.379-.911v-.001l-2.219.013.028-1.607 3.104.027a6.947 6.947 0 0 0 4.981 2.101c.437 0 .864-.045 1.279-.123.04.032.079.065.13.085l2.41.96.152.758.178.885-3.003-.427zm4.041.178-.313-1.558 1.446-1.08.947 1.257-2.08 1.381zm3.754-2.831-.838.785-.931-1.236.831-.637a.735.735 0 0 1 .543-.143.718.718 0 0 1 .48.284.713.713 0 0 1-.085.947z"/>
      <path fill="#2e2f42" style="fill:var(--color1, #2e2f42)" d="m13.602 18.544-2.143-2.133a.534.534 0 0 0-.753 0l-2.142 2.133a.537.537 0 0 0 0 .756l2.142 2.133a.536.536 0 0 0 .753 0l2.143-2.133a.535.535 0 0 0 0-.756zm-2.519 1.759-1.387-1.381 1.387-1.381 1.387 1.381-1.387 1.381zM17.164 5.071l-.258 1.036c.071.018 1.738.452 1.738 2.149h1.067c0-2.017-1.666-2.965-2.547-3.185zM19.711 9.322h-1.067v1.067h1.067V9.322z"/>
    </symbol>
    <symbol id="icon-clock" viewBox="0 0 32 32">
      <path fill="#2e2f42" style="fill:var(--color1, #2e2f42)" d="M31.297 15.301C31.295 6.849 24.442-.002 15.989 0S.686 6.855.688 15.308a15.304 15.304 0 0 0 10.649 14.576.662.662 0 0 0 .529-.065.637.637 0 0 0 .283-.356l3.865-12.25a1.912 1.912 0 1 0-.84-3.635l-5.106-5.107a.637.637 0 0 0-.902.902l5.103 5.109a1.876 1.876 0 0 0 .536 2.309l-3.683 11.673C3.844 25.783.118 17.71 2.799 10.432S13.553-.572 20.831 2.109c7.278 2.681 11.004 10.754 8.323 18.032a14.042 14.042 0 0 1-7.462 7.973l-.398-1.874a.637.637 0 0 0-1.049-.344l-3.837 3.426a.637.637 0 0 0 .231 1.084l4.899 1.564a.638.638 0 0 0 .819-.74l-.391-1.839a15.255 15.255 0 0 0 9.329-14.089zm-15.305-.637a.638.638 0 1 1 0 1.277.638.638 0 0 1 0-1.277zm2.101 14.864 2.184-1.948.603 2.84-2.787-.892z"/>
      <path fill="#4d5ae5" style="fill:var(--color2, #4d5ae5)" d="M15.354 3.185V4.46a.638.638 0 1 0 1.276 0V3.185a.638.638 0 0 0-1.276 0zM3.876 14.664a.638.638 0 0 0 0 1.276h1.275a.638.638 0 1 0 0-1.276H3.876zM28.108 15.939a.638.638 0 1 0 0-1.276h-1.275a.638.638 0 0 0 0 1.276h1.275z"/>
    </symbol>
    <symbol id="icon-diagram" viewBox="0 0 32 32">
      <path fill="#4d5ae5" style="fill:var(--color2, #4d5ae5)" d="M14.925 14.965h1.066v4.798h-1.066v-4.797zM19.19 17.097h1.066v2.665H19.19v-2.665zM10.661 18.696h1.066v1.066h-1.066v-1.066zM7.463 18.163h1.066v1.599H7.463v-1.599z"/>
      <path fill="#2e2f42" style="fill:var(--color1, #2e2f42)" d="M1.599 28.291h25.587a1.6 1.6 0 0 0 1.599-1.599V24.56a1.6 1.6 0 0 0-1.599-1.599h-.533V9.668L29.681 6.8a1.608 1.608 0 1 0-.746-.763L26.654 8.2V6.97a1.6 1.6 0 0 0-1.599-1.599H3.733A1.6 1.6 0 0 0 2.134 6.97v15.992h-.533a1.6 1.6 0 0 0-1.599 1.599v2.132a1.6 1.6 0 0 0 1.599 1.599zM30.384 4.837a.533.533 0 1 1 0 1.067.533.533 0 0 1 0-1.067zM3.198 6.969c0-.294.239-.533.533-.533h21.322c.294 0 .533.239.533.533v2.239l-1.066 1.013V8.035a.533.533 0 0 0-.533-.533H4.797a.533.533 0 0 0-.533.533v13.326c0 .294.239.533.533.533h19.19a.533.533 0 0 0 .533-.533v-9.674l1.066-1.01v12.284H3.198V6.969zm4.798 6.93a1.598 1.598 0 1 0 1.107 2.749l1.853.93a.532.532 0 0 0 .636-.123l3.939-4.431 3.872 2.901a.533.533 0 0 0 .686-.039l3.365-3.188v8.131H5.33V8.569h18.124v2.66l-3.771 3.572-3.904-2.927a.533.533 0 0 0-.718.072l-3.993 4.493-1.493-.746c.011-.064.018-.129.02-.193a1.6 1.6 0 0 0-1.599-1.599zm.533 1.599a.533.533 0 1 1-1.067 0 .533.533 0 0 1 1.067 0zm3.198 8.529h5.331v.533a.533.533 0 0 1-.533.533h-4.264a.533.533 0 0 1-.533-.533v-.533zm-10.661.533c0-.294.239-.533.533-.533h9.062v.533a1.6 1.6 0 0 0 1.599 1.599h4.264a1.6 1.6 0 0 0 1.599-1.599v-.533h9.062c.294 0 .533.239.533.533v2.132a.533.533 0 0 1-.533.533H1.598a.533.533 0 0 1-.533-.533V24.56z"/>
    </symbol>
    <symbol id="icon-twitter" viewBox="0 0 32 32">
    <path d="M32 6.078c-1.1 0.494-2.376 0.858-3.712 1.029l-0.068 0.007c1.36-0.817 2.381-2.078 2.873-3.58l0.013-0.046c-1.197 0.723-2.591 1.274-4.076 1.574l-0.084 0.014c-1.2-1.279-2.901-2.076-4.788-2.076-3.623 0-6.56 2.937-6.56 6.56v0c0 0.52 0.044 1.020 0.152 1.496-5.468-0.276-10.278-2.878-13.495-6.828l-0.027-0.034c-0.563 0.949-0.895 2.091-0.895 3.311 0 2.264 1.145 4.261 2.888 5.442l0.023 0.015c-1.092-0.030-2.109-0.325-2.997-0.823l0.033 0.017v0.072c0.004 3.164 2.237 5.806 5.213 6.438l0.043 0.008c-0.501 0.137-1.075 0.216-1.669 0.216-0.018 0-0.036-0-0.054-0l0.003 0c-0.031 0.001-0.067 0.001-0.103 0.001-0.403 0-0.796-0.041-1.176-0.119l0.037 0.006c0.873 2.624 3.273 4.496 6.121 4.57l0.009 0c-2.214 1.744-5.044 2.798-8.12 2.798-0.005 0-0.010 0-0.015 0h0.001c-0.538 0-1.054-0.024-1.57-0.090 2.826 1.846 6.287 2.944 10.004 2.944 0.021 0 0.042-0 0.063-0h-0.003c12.072 0 18.672-10 18.672-18.668 0-0.29-0.010-0.57-0.024-0.848 1.299-0.937 2.391-2.066 3.258-3.359l0.030-0.047z"></path>
    </symbol>
    <symbol id="icon-facebook" viewBox="0 0 32 32">
    <path d="M21.33 5.314h2.92v-5.088c-1.238-0.144-2.672-0.226-4.125-0.226-0.046 0-0.092 0-0.138 0l0.007-0c-4.212 0-7.094 2.65-7.094 7.52v4.48h-4.65v5.688h4.648v14.312h5.698v-14.31h4.46l0.708-5.69h-5.17v-3.92c0.002-1.644 0.444-2.768 2.736-2.768z"></path>
    </symbol>
    <symbol id="icon-instagram" viewBox="0 0 32 32">
   <path d="M31.968 9.408c-0.074-1.7-0.35-2.87-0.744-3.882-0.424-1.111-1.053-2.058-1.849-2.837l-0.001-0.001c-0.78-0.792-1.724-1.419-2.778-1.826l-0.054-0.018c-1.020-0.394-2.18-0.67-3.88-0.744-1.716-0.080-2.262-0.1-6.602-0.1-4.346 0-4.89 0.020-6.596 0.094-1.7 0.074-2.868 0.35-3.88 0.744-1.112 0.424-2.060 1.053-2.839 1.849l-0.001 0.001c-0.792 0.78-1.419 1.724-1.826 2.778l-0.018 0.054c-0.394 1.020-0.668 2.18-0.744 3.88-0.080 1.714-0.1 2.26-0.1 6.602 0 4.346 0.020 4.89 0.094 6.596 0.074 1.7 0.35 2.87 0.744 3.882 0.406 1.076 1.038 2.038 1.85 2.84 0.8 0.81 1.77 1.442 2.832 1.842 1.020 0.394 2.18 0.67 3.882 0.744 1.706 0.076 2.25 0.094 6.596 0.094 4.344 0 4.888-0.020 6.594-0.094 1.7-0.074 2.87-0.35 3.882-0.744 2.156-0.85 3.832-2.524 4.663-4.625l0.019-0.055c0.394-1.020 0.67-2.184 0.744-3.884 0.076-1.706 0.094-2.25 0.094-6.594 0-4.346-0.006-4.89-0.080-6.596zM29.088 22.472c-0.070 1.564-0.332 2.408-0.552 2.97-0.551 1.4-1.638 2.488-3.002 3.027l-0.036 0.013c-0.562 0.218-1.412 0.48-2.968 0.548-1.688 0.076-2.194 0.094-6.464 0.094s-4.782-0.020-6.464-0.094c-1.564-0.068-2.408-0.33-2.97-0.55-0.721-0.269-1.335-0.676-1.837-1.193l-0.001-0.001c-0.517-0.504-0.923-1.118-1.183-1.804l-0.011-0.034c-0.22-0.562-0.48-1.412-0.55-2.968-0.074-1.688-0.094-2.196-0.094-6.464 0-4.27 0.020-4.782 0.094-6.464 0.070-1.564 0.332-2.406 0.55-2.97 0.256-0.694 0.664-1.324 1.2-1.838 0.52-0.53 1.144-0.938 1.84-1.194 0.56-0.22 1.412-0.48 2.968-0.55 1.688-0.074 2.194-0.094 6.464-0.094 4.276 0 4.78 0.020 6.464 0.094 1.562 0.070 2.406 0.332 2.968 0.55 0.694 0.256 1.326 0.664 1.84 1.194 0.53 0.52 0.936 1.144 1.192 1.84 0.22 0.56 0.482 1.412 0.55 2.968 0.076 1.688 0.094 2.194 0.094 6.464s-0.018 4.77-0.092 6.458z"></path>
   <path d="M16.060 7.782c-4.462 0.102-8.041 3.743-8.041 8.22s3.578 8.118 8.031 8.22l0.009 0c4.462-0.102 8.041-3.743 8.041-8.22s-3.578-8.118-8.031-8.22l-0.009-0zM16.060 21.336c-2.946 0-5.334-2.388-5.334-5.334s2.388-5.334 5.334-5.334v0c2.946 0 5.334 2.388 5.334 5.334s-2.388 5.334-5.334 5.334v0zM26.524 7.458c0 1.060-0.86 1.92-1.92 1.92s-1.92-0.86-1.92-1.92v0c0-1.060 0.86-1.92 1.92-1.92s1.92 0.86 1.92 1.92v0z"></path>
    </symbol>
    <symbol id="icon-linkedin" viewBox="0 0 32 32">
    <path d="M31.992 32h0.008v-11.74c0-5.74-1.236-10.164-7.948-10.164-3.226 0-5.392 1.772-6.276 3.45h-0.094v-2.912h-6.362v21.366h6.628v-10.58c0-2.786 0.528-5.48 3.976-5.48 3.4 0 3.45 3.18 3.45 5.66v10.4h6.62zM0.528 10.636h6.634v21.364h-6.634v-21.364zM3.842 0c-2.12 0-3.84 1.72-3.84 3.84s1.72 3.88 3.84 3.88c2.122 0 3.844-1.76 3.844-3.88s-1.726-3.84-3.846-3.84z"></path>
    </symbol>
    <symbol id="icon-telegram" viewBox="0 0 32 32">
    <path fill="#fff" style="fill: var(--color1, #fff)" d="M32 2.667l-32 15 10.227 3.156 15.773-12.323-11.998 13.488 0.010 0.003-0.012-0.003v7.345l5.735-5.576 7.265 2.242 5-23.333z"></path>
    </symbol>
    <symbol id="icon-close-black" viewBox="0 0 32 32">
    <path d="M32 3.223l-3.223-3.223-12.777 12.777-12.777-12.777-3.223 3.223 12.777 12.777-12.777 12.777 3.223 3.223 12.777-12.777 12.777 12.777 3.223-3.223-12.777-12.777 12.777-12.777z"></path>
    </symbol>
    <symbol id="icon-name" viewBox="0 0 32 32">
    <path d="M16 16c2.947 0 5.333-2.387 5.333-5.333s-2.387-5.333-5.333-5.333c-2.947 0-5.333 2.387-5.333 5.333s2.387 5.333 5.333 5.333zM16 18.667c-3.56 0-10.667 1.787-10.667 5.333v1.333c0 0.733 0.6 1.333 1.333 1.333h18.667c0.733 0 1.333-0.6 1.333-1.333v-1.333c0-3.547-7.107-5.333-10.667-5.333z"></path>
    </symbol>
    <symbol id="icon-phone" viewBox="0 0 24 32">
    <path d="M19.635 18.487l-2.451-0.28c-0.589-0.067-1.167 0.135-1.582 0.55l-1.775 1.775c-2.731-1.389-4.969-3.618-6.359-6.359l1.785-1.785c0.415-0.415 0.618-0.994 0.55-1.582l-0.28-2.432c-0.116-0.975-0.936-1.708-1.92-1.708h-1.669c-1.090 0-1.997 0.907-1.93 1.997 0.511 8.24 7.102 14.821 15.332 15.332 1.090 0.068 1.997-0.839 1.997-1.93v-1.669c0.010-0.975-0.724-1.795-1.698-1.911z"></path>
    </symbol>
    <symbol id="icon-email" viewBox="0 0 24 32">
    <path d="M20 8h-16c-1.1 0-1.99 0.9-1.99 2l-0.010 12c0 1.1 0.9 2 2 2h16c1.1 0 2-0.9 2-2v-12c0-1.1-0.9-2-2-2zM19.6 12.25l-7.070 4.42c-0.32 0.2-0.74 0.2-1.060 0l-7.070-4.42c-0.25-0.16-0.4-0.43-0.4-0.72 0-0.67 0.73-1.070 1.3-0.72l6.7 4.19 6.7-4.19c0.57-0.35 1.3 0.050 1.3 0.72 0 0.29-0.15 0.56-0.4 0.72z"></path>
    </symbol>
    <symbol id="icon-checkbox" viewBox="0 0 40 32">
<path d="M33.843 1.958c0.657-0.578 1.532-0.897 2.44-0.891s1.777 0.338 2.425 0.925 1.023 1.383 1.047 2.221c0.024 0.838-0.305 1.651-0.919 2.269l-18.62 21.495c-0.32 0.318-0.707 0.574-1.136 0.751s-0.893 0.273-1.364 0.281c-0.47 0.008-0.938-0.072-1.374-0.234s-0.833-0.405-1.166-0.712l-12.348-11.398c-0.344-0.296-0.62-0.652-0.811-1.049s-0.294-0.824-0.302-1.258c-0.008-0.434 0.078-0.865 0.254-1.267s0.438-0.768 0.77-1.075c0.332-0.307 0.728-0.549 1.164-0.711s0.903-0.242 1.373-0.235c0.47 0.008 0.933 0.103 1.363 0.279s0.816 0.431 1.136 0.749l9.772 9.016 16.207-19.062c0.029-0.033 0.060-0.065 0.093-0.095h-0.005z"></path>
</symbol>
  </defs>
</svg>
